<?xml version="1.0" encoding="UTF-8"?>
<svg width="14px" height="20px" viewBox="0 0 14 20" version="1.1" xmlns="http://www.w3.org/2000/svg" xmlns:xlink="http://www.w3.org/1999/xlink">
    <!-- Generator: Sketch 61.2 (89653) - https://sketch.com -->
    <title>icono ubicacion</title>
    <desc>Created with Sketch.</desc>
    <g id="Page-1" stroke="none" stroke-width="1" fill="none" fill-rule="evenodd">
        <g id="1-AUTOMOTRIZ" transform="translate(-168.000000, -5337.000000)" fill="#FFFFFF" fill-rule="nonzero">
            <g id="FOOTER-2" transform="translate(0.000000, 4167.000000)">
                <g id="FOOTER">
                    <g transform="translate(0.000000, 913.000000)" id="icono-ubicacion">
                        <g transform="translate(168.000000, 257.000000)">
                            <path d="M7,0 C3.1402,0 0,3.15421875 0,7.03125 C0,8.34117188 0.361238889,9.61953125 1.04490556,10.7285937 L6.60154444,19.7230078 C6.70798333,19.8953125 6.89550556,20 7.09718333,20 C7.09873889,20 7.10025556,20 7.10181111,20 C7.30523889,19.9983984 7.49315,19.8904688 7.59764444,19.7151562 L13.01265,10.6335938 C13.6585944,9.54796875 14,8.30230469 14,7.03125 C14,3.15421875 10.8598,0 7,0 Z M12.0114556,10.0319531 L7.08835556,18.2885156 L2.03649444,10.1111719 C1.46743333,9.18804687 1.15888889,8.12304688 1.15888889,7.03125 C1.15888889,3.80039062 3.7835,1.1640625 7,1.1640625 C10.2165,1.1640625 12.8372222,3.80039062 12.8372222,7.03125 C12.8372222,8.09066406 12.5490167,9.1284375 12.0114556,10.0319531 Z" id="Shape"></path>
                            <path d="M7,3.515625 C5.0701,3.515625 3.5,5.09273438 3.5,7.03125 C3.5,8.95738281 5.04455,10.546875 7,10.546875 C8.97956111,10.546875 10.5,8.93621094 10.5,7.03125 C10.5,5.09273438 8.9299,3.515625 7,3.515625 Z M7,9.3828125 C5.70667222,9.3828125 4.65888889,8.32683594 4.65888889,7.03125 C4.65888889,5.73890625 5.7134,4.6796875 7,4.6796875 C8.2866,4.6796875 9.33722222,5.73890625 9.33722222,7.03125 C9.33722222,8.30792969 8.31382222,9.3828125 7,9.3828125 Z" id="Shape"></path>
                        </g>
                    </g>
                </g>
            </g>
        </g>
    </g>
</svg>