<?xml version="1.0" encoding="UTF-8"?>
<svg width="17px" height="17px" viewBox="0 0 17 17" version="1.1" xmlns="http://www.w3.org/2000/svg" xmlns:xlink="http://www.w3.org/1999/xlink">
    <!-- Generator: Sketch 61.2 (89653) - https://sketch.com -->
    <title>icono whatsapp</title>
    <desc>Created with Sketch.</desc>
    <g id="Page-1" stroke="none" stroke-width="1" fill="none" fill-rule="evenodd">
        <g id="6-COTIZADOR" transform="translate(-526.000000, -746.000000)" fill-rule="nonzero">
            <g id="DATOS" transform="translate(152.000000, 284.000000)">
                <g id="Group-9" transform="translate(0.000000, 413.000000)">
                    <g id="icono-whatsapp" transform="translate(374.000000, 49.000000)">
                        <path d="M0,17 L1.17240234,12.75 C0.410357422,11.4310391 0,9.96551953 0,8.44136328 C0,3.81035742 3.81035742,0 8.47068164,0 C13.1310059,0 17,3.81035742 17,8.44136328 C17,13.0723691 13.1310391,17 8.47068164,17 C7.00516211,17 5.5982793,16.5310391 4.33792188,15.8275977 L0,17 Z" id="Path" fill="#ED1C25"></path>
                        <path d="M4.57240234,14.3034414 L4.83620117,14.45 C5.92068164,15.124123 7.18103906,15.5344805 8.5,15.5344805 C12.3396426,15.5344805 15.5344805,12.3396426 15.5344805,8.44136328 C15.5344805,4.54308398 12.3396426,1.46551953 8.47068164,1.46551953 C4.6017207,1.46551953 1.46551953,4.57240234 1.46551953,8.44136328 C1.46551953,9.78964258 1.84655859,11.1086035 2.55,12.2224023 L2.72587695,12.4862012 L2.05175391,14.9482793 L4.57240234,14.3034414 Z" id="Path" fill="#FFFFFF"></path>
                        <path d="M6.21379883,4.51379883 L5.65691602,4.48448047 C5.48103906,4.48448047 5.30519531,4.54311719 5.18795508,4.66035742 C4.92415625,4.89483789 4.48451367,5.33448047 4.36727344,5.92071484 C4.16211133,6.8000332 4.48451367,7.85519531 5.2465918,8.91035742 C6.00866992,9.96551953 7.47418945,11.6655195 10.0534746,12.3982793 C10.8741563,12.6327598 11.5189941,12.4862012 12.0465918,12.1637988 C12.4569492,11.9 12.7207148,11.4896758 12.8086699,11.05 L12.8965918,10.6396426 C12.9259102,10.5224023 12.8672734,10.3758438 12.7500332,10.3172402 L10.9034746,9.46724023 C10.7862344,9.40860352 10.6396758,9.43792188 10.5517539,9.55516211 L9.81899414,10.493084 C9.76035742,10.5517207 9.67243555,10.5810059 9.58451367,10.5517207 C9.08623438,10.3758438 7.41555273,9.67240234 6.50691602,7.91379883 C6.47759766,7.82587695 6.47759766,7.73792188 6.53623438,7.67931836 L7.23967578,6.88795508 C7.2983125,6.8000332 7.32759766,6.68279297 7.2983125,6.59483789 L6.4483125,4.68967578 C6.41896094,4.6017207 6.33103906,4.51379883 6.21379883,4.51379883" id="Path" fill="#ED1C25"></path>
                    </g>
                </g>
            </g>
        </g>
    </g>
</svg>