<?xml version="1.0" encoding="UTF-8"?>
<svg width="17px" height="17px" viewBox="0 0 17 17" version="1.1" xmlns="http://www.w3.org/2000/svg" xmlns:xlink="http://www.w3.org/1999/xlink">
    <!-- Generator: Sketch 61.2 (89653) - https://sketch.com -->
    <title>icono correo menu</title>
    <desc>Created with Sketch.</desc>
    <g id="Page-1" stroke="none" stroke-width="1" fill="none" fill-rule="evenodd">
        <g id="1-AUTOMOTRIZ" transform="translate(-1114.000000, -11.000000)" fill="#FFFFFF" fill-rule="nonzero" stroke="#FFFFFF" stroke-width="0.2">
            <g id="HEADER">
                <g id="BARRA-CONTACTO">
                    <g id="barra-de-contacto">
                        <g id="icono-correo-menu" transform="translate(1115.000000, 12.000000)">
                            <path d="M7.5,0 C3.35791016,0 0,3.35791016 0,7.5 C0,11.6420898 3.35791016,15 7.5,15 C11.6420898,15 15,11.6420898 15,7.5 C14.9953613,3.35986328 11.6401367,0.0046386875 7.5,0 Z M7.48175182,14.4890511 C3.61175376,14.4890511 0.474452555,11.3517499 0.474452555,7.48175182 C0.474452555,3.61175376 3.61175376,0.474452555 7.48175182,0.474452555 C11.3517499,0.474452555 14.4890511,3.61175376 14.4890511,7.48175182 C14.484652,11.3499169 11.3499169,14.484652 7.48175182,14.4890511 Z" id="Shape"></path>
                            <path d="M10.9914842,4.48905109 L4.00851582,4.48905109 C3.8707902,4.48905109 3.75912409,4.6013981 3.75912409,4.7399635 L3.75912409,10.2600365 C3.75912409,10.3986019 3.8707902,10.5109489 4.00851582,10.5109489 L10.9914842,10.5109489 C11.1292098,10.5109489 11.2408759,10.3986019 11.2408759,10.2600365 L11.2408759,4.7399635 C11.2408759,4.6013981 11.1292098,4.48905109 10.9914842,4.48905109 Z M10.2919708,5 L7.48175182,7.44525547 L4.67153285,5 L10.2919708,5 Z M4.23357664,10 L4.23357664,5.2919708 L7.31912347,7.93904665 C7.41257681,8.01915006 7.55043883,8.01915006 7.64389217,7.93904665 L10.729927,5.2919708 L10.729927,10 L4.23357664,10 Z" id="Shape"></path>
                        </g>
                    </g>
                </g>
            </g>
        </g>
    </g>
</svg>