<?xml version="1.0" encoding="UTF-8"?>
<svg width="22px" height="22px" viewBox="0 0 22 22" version="1.1" xmlns="http://www.w3.org/2000/svg" xmlns:xlink="http://www.w3.org/1999/xlink">
    <!-- Generator: Sketch 61.2 (89653) - https://sketch.com -->
    <title>icono telefono</title>
    <desc>Created with Sketch.</desc>
    <g id="Page-1" stroke="none" stroke-width="1" fill="none" fill-rule="evenodd">
        <g id="1-AUTOMOTRIZ" transform="translate(-167.000000, -5209.000000)" fill-rule="nonzero" stroke="#FFFFFF">
            <g id="FOOTER-2" transform="translate(0.000000, 4167.000000)">
                <g id="FOOTER">
                    <g transform="translate(0.000000, 913.000000)" id="icono-telefono">
                        <g transform="translate(168.000000, 130.000000)">
                            <path d="M19.6723489,15.4177885 C19.6165862,15.2497753 19.2618043,15.0022672 18.6082483,14.6758528 C18.4312006,14.5729655 18.17892,14.4331507 17.8524853,14.2557707 C17.5257564,14.0783907 17.2291893,13.9149383 16.9633235,13.7655605 C16.6969183,13.6162318 16.447335,13.4715619 16.2141324,13.3317471 C16.1768592,13.3037449 16.0601843,13.2221903 15.8641567,13.0865439 C15.667933,12.9512899 15.5024596,12.8509037 15.3668539,12.7854344 C15.2315424,12.7203575 15.0984379,12.6875984 14.9677365,12.6875984 C14.7810763,12.6875984 14.5479227,12.8206946 14.2679814,13.0865439 C13.9880401,13.3527365 13.7312474,13.6418801 13.4979957,13.9548574 C13.264695,14.2676876 13.0172696,14.5568312 12.7561611,14.8228766 C12.4946603,15.0890201 12.2797999,15.2219693 12.1119725,15.2219693 C12.0277155,15.2219693 11.9226639,15.1984788 11.7967688,15.1521354 C11.6709227,15.1054978 11.5751895,15.0655297 11.509471,15.03331 C11.444341,15.0004037 11.3325704,14.9352777 11.173767,14.8369513 C11.0146694,14.738919 10.9261946,14.6852195 10.907558,14.6758528 C9.62874421,13.9662839 8.53198057,13.154171 7.61707086,12.2397103 C6.70245541,11.3247101 5.89019411,10.2281125 5.18077738,8.94923086 C5.17145909,8.93054638 5.11765818,8.84183187 5.01971796,8.68323446 C4.92163062,8.52448993 4.8562554,8.41262825 4.82359232,8.34710996 C4.79092923,8.28183688 4.7512529,8.18610956 4.70466141,8.06012417 C4.65806992,7.93413878 4.63467609,7.82919183 4.63467609,7.74508714 C4.63467609,7.57717201 4.76773157,7.36237404 5.0337935,7.10098746 C5.29980638,6.839748 5.58926213,6.59228896 5.9018665,6.35910075 C6.21471609,6.12591254 6.50387758,5.86913578 6.76998855,5.58921184 C7.03600143,5.30914078 7.16900787,5.07590353 7.16900787,4.88925488 C7.16900787,4.75865967 7.13634478,4.62551435 7.07106765,4.49021124 C7.00574148,4.35461389 6.90539813,4.18915079 6.76998855,3.9930373 C6.63452992,3.79702188 6.55287221,3.6804523 6.52481923,3.64293621 C6.38494667,3.409748 6.24041497,3.16008213 6.09088081,2.89403669 C5.94134666,2.6280403 5.77812931,2.33154063 5.60068931,2.00488096 C5.42339643,1.67836843 5.28347483,1.42625053 5.1806793,1.2489196 C4.85414653,0.595649314 4.60681929,0.240791288 4.43874662,0.184983047 C4.3733714,0.156980845 4.27528406,0.142857143 4.1447298,0.142857143 C3.89254724,0.142857143 3.56356228,0.189445745 3.15752972,0.282917193 C2.75135003,0.376241519 2.43173241,0.474126624 2.19833357,0.576964833 C1.73158494,0.772882164 1.23688142,1.34224392 0.714075871,2.28485394 C0.238008942,3.1620928 0,4.03035722 0,4.88900967 C0,5.14083333 0.0163315429,5.38584033 0.0489946288,5.62407973 C0.0816577147,5.86207393 0.140019685,6.13047332 0.224129583,6.42922886 C0.30809235,6.72788632 0.375821662,6.94974614 0.427023256,7.09421985 C0.478273894,7.23879164 0.573958099,7.49777523 0.714026827,7.87126869 C0.853899381,8.24466408 0.93800928,8.47324247 0.966013217,8.55724908 C1.29269312,9.47205306 1.68008909,10.2887267 2.12810304,11.0075153 C2.86522943,12.2022432 3.8711642,13.4369393 5.14531881,14.711113 C6.41952246,15.9851887 7.65404979,16.9910121 8.84894982,17.728387 C9.56768484,18.1763242 10.3847034,18.5636471 11.2994169,18.890552 C11.3834778,18.918407 11.6120703,19.0023156 11.9853417,19.1426699 C12.3587602,19.2826318 12.617858,19.3783101 12.7624387,19.4296557 C12.9070685,19.4810502 13.1289911,19.5488244 13.4274219,19.6329291 C13.7264902,19.7170338 13.994661,19.7753921 14.2326699,19.8082984 C14.470826,19.8405181 14.7158972,19.8571429 14.9677855,19.8571429 C15.8264421,19.8571429 16.6948094,19.6190015 17.5722498,19.1430131 C18.5148201,18.6204362 19.08407,18.1256652 19.2800976,17.6586022 C19.3831874,17.425463 19.4808333,17.1057671 19.5741634,16.6996126 C19.6677878,16.2936542 19.7142857,15.9647387 19.7142857,15.7126208 C19.7145755,15.5815352 19.7004999,15.4836991 19.6723489,15.4177885 Z" id="Path"></path>
                        </g>
                    </g>
                </g>
            </g>
        </g>
    </g>
</svg>