<?xml version="1.0" encoding="UTF-8"?>
<svg width="17px" height="17px" viewBox="0 0 17 17" version="1.1" xmlns="http://www.w3.org/2000/svg" xmlns:xlink="http://www.w3.org/1999/xlink">
    <!-- Generator: Sketch 61.2 (89653) - https://sketch.com -->
    <title>icono telefono menu</title>
    <desc>Created with Sketch.</desc>
    <g id="Page-1" stroke="none" stroke-width="1" fill="none" fill-rule="evenodd">
        <g id="1-AUTOMOTRIZ" transform="translate(-957.000000, -11.000000)" fill="#FFFFFF" fill-rule="nonzero" stroke="#FFFFFF" stroke-width="0.25">
            <g id="HEADER">
                <g id="BARRA-CONTACTO">
                    <g id="barra-de-contacto">
                        <g id="icono-telefono-menu" transform="translate(958.000000, 12.000000)">
                            <g id="phone-copy">
                                <path d="M12.6818332,2.13152649 C9.73925194,-0.710508831 5.07411902,-0.710508831 2.13153778,2.13152649 C-0.781856714,5.14800043 -0.698300766,9.95507289 2.31816683,12.8684735 C5.26074806,15.7105088 9.92588098,15.7105088 12.8684622,12.8684735 C15.7818567,9.85202923 15.6983008,5.04492711 12.6818332,2.13152649 Z M12.5115772,12.5115877 L12.509056,12.5090665 C9.74011212,15.2754949 5.25282849,15.2734483 2.48640585,12.5044986 C-0.280016786,9.73554897 -0.277970154,5.24828557 2.49097369,2.48185712 C5.25991754,-0.284571334 9.74720117,-0.282524698 12.5136238,2.48639531 C13.8424214,3.81641184 14.5883147,5.61991307 14.5871001,7.5 C14.5871001,9.37967167 13.8406418,11.1824017 12.5115772,12.5115877 Z" id="Shape"></path>
                                <path d="M11.7248618,9.65248283 L10.3167339,8.23758427 C9.99715464,7.91455618 9.47838149,7.9139344 9.15803878,8.23619267 C9.15756898,8.2366664 9.15712854,8.23711053 9.15665875,8.23758427 L8.34987078,9.0511354 C8.28882656,9.11283939 8.19263566,9.12136662 8.12187251,9.07135796 C7.68029285,8.76017325 7.26693037,8.41011265 6.88662984,8.02535096 C6.54602713,7.68266287 6.23270201,7.31350482 5.94953197,6.92122259 C5.89820667,6.8507545 5.90566469,6.75304664 5.96706127,6.69131305 L6.79390369,5.85753935 C7.11313063,5.5350146 7.11313063,5.01278092 6.79390369,4.69025617 L5.38577578,3.27032417 C5.06129298,2.95751099 4.5501834,2.95751099 4.2257006,3.27032417 L3.7797166,3.72004678 C3.10617476,4.39159583 2.86572687,5.3887489 3.1583222,6.29716548 C3.37666028,6.96178615 3.68528743,7.59268281 4.07536561,8.17188314 C4.42653874,8.70288092 4.82941889,9.19716423 5.27804549,9.64741979 C5.76578269,10.142769 6.30604904,10.582484 6.88912563,10.9587184 C7.53010468,11.3804907 8.23388969,11.696087 8.97376097,11.8935457 C9.16396996,11.9408304 9.35917054,11.9645764 9.55504646,11.964283 C10.2265917,11.9601351 10.8690682,11.6875598 11.341537,11.2063042 L11.7248912,10.8197364 C12.0440888,10.4972413 12.0440888,9.97500758 11.7248618,9.65248283 Z M11.3700478,10.4751534 C11.3697248,10.4754791 11.3694018,10.4758344 11.3690495,10.4761601 L11.3715453,10.4685803 L10.988191,10.8551481 C10.4956384,11.3581067 9.77828804,11.5650401 9.09646603,11.4008909 C8.40953498,11.2154828 7.75651739,10.9203459 7.16216567,10.5267017 C6.60997823,10.1708378 6.09825203,9.75483921 5.63626558,9.28613759 C5.21118753,8.86063469 4.82930144,8.39341349 4.49621548,7.89146159 C4.13188804,7.35134441 3.84352088,6.76296547 3.63930607,6.14305354 C3.40520044,5.41480433 3.59919717,4.61570212 4.14043247,4.07884187 L4.58641648,3.62911926 C4.71041348,3.50352025 4.91189759,3.50307612 5.03642311,3.62811257 C5.0367461,3.62843826 5.03709845,3.62876396 5.03742143,3.62911926 L6.44554934,5.04905126 C6.57010422,5.17408771 6.57054466,5.37726083 6.44654766,5.50283023 C6.44622467,5.50315592 6.44590169,5.50348161 6.44554934,5.50383691 L5.61870692,6.33761061 C5.38145952,6.57424127 5.35162742,6.95026847 5.54856038,7.22192592 C5.84761542,7.6357927 6.17855793,8.02523253 6.53827549,8.38669237 C6.93933517,8.79286097 7.37533599,9.1623447 7.8411689,9.49082075 C8.11033312,9.68013712 8.47524781,9.64821922 8.70809086,9.41502314 L9.50736208,8.59640896 C9.63135908,8.47080996 9.8328432,8.47036583 9.95736872,8.59540227 C9.9576917,8.59572797 9.95801469,8.59605366 9.95836704,8.59640896 L11.3690201,10.021404 C11.4936043,10.1464108 11.4940448,10.3495544 11.3700478,10.4751534 Z" id="Shape"></path>
                            </g>
                        </g>
                    </g>
                </g>
            </g>
        </g>
    </g>
</svg>