<?xml version="1.0" encoding="UTF-8"?>
<svg width="20px" height="15px" viewBox="0 0 20 15" version="1.1" xmlns="http://www.w3.org/2000/svg" xmlns:xlink="http://www.w3.org/1999/xlink">
    <!-- Generator: Sketch 61.2 (89653) - https://sketch.com -->
    <title>icono correo</title>
    <desc>Created with Sketch.</desc>
    <g id="Page-1" stroke="none" stroke-width="1" fill="none" fill-rule="evenodd">
        <g id="1-AUTOMOTRIZ" transform="translate(-168.000000, -5276.000000)" fill="#FFFFFF" fill-rule="nonzero">
            <g id="FOOTER-2" transform="translate(0.000000, 4167.000000)">
                <g id="FOOTER">
                    <g transform="translate(0.000000, 913.000000)" id="icono-correo">
                        <g transform="translate(168.000000, 196.000000)">
                            <path d="M17.7397911,0 L1.70940171,0 C0.768015195,0 -4.21062362e-14,0.776769231 -4.21062362e-14,1.73076923 L-4.21062362e-14,13.2692308 C-4.21062362e-14,14.22 0.764596391,15 1.70940171,15 L17.7397911,15 C18.6788224,15 19.4491928,14.2258462 19.4491928,13.2692308 L19.4491928,1.73076923 C19.4491928,0.78 18.6845964,0 17.7397911,0 Z M17.5037417,1.15384615 L9.76083571,8.99357692 L1.95095916,1.15384615 L17.5037417,1.15384615 Z M1.13960114,13.0303077 L1.13960114,1.96419231 L6.62788224,7.47342308 L1.13960114,13.0303077 Z M1.94541311,13.8461538 L7.437151,8.28576923 L9.36144349,10.2173846 C9.58419753,10.441 9.94366572,10.4402692 10.1655081,10.2156154 L12.0417854,8.31588462 L17.5037797,13.8461538 L1.94541311,13.8461538 Z M18.3095916,13.0302692 L12.8475973,7.5 L18.3095916,1.96969231 L18.3095916,13.0302692 Z" id="Shape"></path>
                        </g>
                    </g>
                </g>
            </g>
        </g>
    </g>
</svg>