<?xml version="1.0" encoding="UTF-8"?>
<svg width="235px" height="60px" viewBox="0 0 235 60" version="1.1" xmlns="http://www.w3.org/2000/svg" xmlns:xlink="http://www.w3.org/1999/xlink">
    <!-- Generator: Sketch 63.1 (92452) - https://sketch.com -->
    <title>logo exel mexicana</title>
    <desc>Created with Sketch.</desc>
    <defs>
        <polygon id="path-1" points="0.0888032113 0.0997087466 3.59523637 0.0997087466 3.59523637 2.43526171 0.0888032113 2.43526171"></polygon>
    </defs>
    <g id="Page-1" stroke="none" stroke-width="1" fill="none" fill-rule="evenodd">
        <g id="1-AUTOMOTRIZ" transform="translate(-151.000000, -69.000000)">
            <g id="HEADER">
                <g id="logo-exel-mexicana" transform="translate(151.000000, 69.000000)">
                    <polygon id="Fill-1" fill="#FFFFFF" points="2.04347826 7.99186248 232.956522 7.99186248 232.956522 0.491862481 2.04347826 0.491862481"></polygon>
                    <path d="M59.2505916,24.1146933 L70.6083102,24.1146933 L75.9084179,10.037317 L78.3333333,13.6012839 L72.9991229,27.8675185 L62.0512407,27.8675185 L59.2505916,24.1146933 Z M42.2351394,30.0136212 L51.1235787,30.0136212 L53.4135922,24.1146933 L56.3007053,27.2247694 L53.8323315,33.6285212 L44.6529627,33.6285212 L43.9377107,35.4549022 L40.0898361,35.4549022 L42.2351394,30.0136212 Z M47.3588484,17.0186115 L60.3314671,17.0186115 L58.9266157,20.6641616 L49.730799,20.6641616 L49.0280715,22.45839 L45.2139979,22.45839 L47.3588484,17.0186115 Z M17.7101449,44.4349088 L62.9576792,44.4349088 L68.558223,29.5600309 L70.9884198,33.2447949 L65.389536,48.2191352 L22.0288183,48.2191352 L17.7101449,44.4349088 Z M28.8680758,17.0186115 L33.8780085,17.0186115 L32.4069132,20.6641616 L28.8680758,17.0186115 Z M18.4229826,42.6835003 L20.6591258,37.1890325 L27.431536,37.1890325 L36.2270227,15.3313577 L29.5548082,15.3313577 L31.7093162,10.037317 L74.1740073,10.037317 L69.4827691,22.45839 L59.8870753,22.45839 L62.6255549,15.3313577 L46.2835561,15.3313577 L42.8099062,24.1146933 L51.6868774,24.1146933 L50.0585474,28.2960178 L41.1562255,28.2960178 L37.6391173,37.1890325 L54.2267764,37.1890325 L57.1582532,29.5600309 L66.8004233,29.5600309 L61.8439082,42.6835003 L18.4229826,42.6835003 Z" id="Fill-2" fill="#FFFFFF"></path>
                    <path d="M130.707224,17.0186115 L133.069053,10.037317 L135.550725,13.811477 L133.249952,20.6641616 L123.578403,20.6641616 L112.115749,28.534457 L110.181469,26.1548732 L123.587342,17.0186115 L130.707224,17.0186115 Z M96.5753052,44.4349088 L121.431864,44.4349088 L123.883234,37.1890325 L126.623071,40.4032285 L123.998984,48.2191352 L100.270238,48.2191352 L96.5753052,44.4349088 Z M102.518893,17.0186115 L103.685339,17.0186115 L106.176706,10.037317 L109.070323,13.134472 L107.694798,17.0186115 L108.49672,17.0186115 L104.702551,19.5568543 L102.518893,17.0186115 Z M93.3976145,35.5028304 L97.0542162,33.0527816 L98.8853199,35.5028304 L93.3976145,35.5028304 Z M93.5553325,37.1890325 L96.4594029,39.8947987 L93.494124,48.2191352 L73.1162396,48.2191352 L68.7971014,44.4349088 L90.9551834,44.4349088 L93.5553325,37.1890325 Z M79.044828,17.0186115 L84.7067655,17.0186115 L87.4996304,20.6641616 L82.7736981,20.6641616 L79.044828,17.0186115 Z M69.4517597,42.6835003 L71.5055774,37.1890325 L78.0097378,37.1890325 L94.4901256,26.2023507 L85.9862352,15.3313577 L79.6755482,15.3313577 L81.654219,10.037317 L104.435446,10.037317 L102.5398,15.3313577 L98.8989554,15.3313577 L103.8726,21.8912143 L113.462336,15.3313577 L110.039962,15.3313577 L111.908185,10.037317 L131.327944,10.037317 L129.530475,15.3313577 L123.413868,15.3313577 L107.467236,26.1548732 L115.99961,37.1890325 L122.109399,37.1890325 L120.243904,42.6835003 L97.1970865,42.6835003 L99.1478801,37.1890325 L102.991289,37.1890325 L97.9847671,30.586957 L88.3571554,37.1890325 L91.7814981,37.1890325 L89.8032819,42.6835003 L69.4517597,42.6835003 Z" id="Fill-3" fill="#FFFFFF"></path>
                    <path d="M167.576943,24.1146933 L178.97989,24.1146933 L183.25804,10.037317 L185.956522,13.6012839 L181.658222,27.8675185 L170.666895,27.8675185 L167.576943,24.1146933 Z M150.930954,30.0136212 L159.854486,30.0136212 L161.716699,24.1146933 L164.845889,27.2247694 L162.842026,33.6285212 L153.625951,33.6285212 L153.043139,35.4549022 L149.180093,35.4549022 L150.930954,30.0136212 Z M155.112298,17.0186115 L168.136273,17.0186115 L166.995948,20.6641616 L157.763663,20.6641616 L157.19085,22.45839 L153.361891,22.45839 L155.112298,17.0186115 Z M127.376812,44.4349088 L172.804531,44.4349088 L177.325078,29.5600309 L180.038103,33.2447949 L175.526343,48.2191352 L131.993105,48.2191352 L127.376812,44.4349088 Z M136.547891,17.0186115 L141.577623,17.0186115 L140.37079,20.6641616 L136.547891,17.0186115 Z M127.962654,42.6835003 L129.800627,37.1890325 L136.599855,37.1890325 L143.810854,15.3313577 L137.112221,15.3313577 L138.883232,10.037317 L181.516874,10.037317 L177.727153,22.45839 L168.093096,22.45839 L170.31451,15.3313577 L153.907435,15.3313577 L151.070939,24.1146933 L159.98326,24.1146933 L158.658259,28.2960178 L149.720486,28.2960178 L146.848388,37.1890325 L163.501799,37.1890325 L165.879711,29.5600309 L175.56043,29.5600309 L171.556491,42.6835003 L127.962654,42.6835003 Z" id="Fill-4" fill="#FFFFFF"></path>
                    <path d="M200.103262,35.4548519 L205.40418,17.0184887 L212.32128,17.0184887 L214.295381,10.037317 L217.130646,13.4145424 L215.0996,20.6640531 L208.213934,20.6640531 L204.00029,35.4548519 L200.103262,35.4548519 Z M178.463768,44.4350442 L220.598687,44.4350442 L225.970673,24.6834291 L228.869565,28.0101719 L223.425601,48.2191352 L183.073751,48.2191352 L178.463768,44.4350442 Z M190.853381,20.6640531 L186.698809,17.0184887 L191.935189,17.0184887 L190.853381,20.6640531 Z M178.98979,42.6834785 L180.640139,37.1889891 L187.653211,37.1889891 L194.114597,15.3313785 L187.205545,15.3313785 L188.795608,10.037317 L212.57442,10.037317 L211.071218,15.3313785 L204.186311,15.3313785 L197.876019,37.1889891 L211.087011,37.1889891 L214.585422,24.6834291 L224.2078,24.6834291 L219.290617,42.6834785 L178.98979,42.6834785 Z" id="Fill-5" fill="#FFFFFF"></path>
                    <path d="M131.388523,17.0184887 L133.750359,10.037317 L136.231884,13.8114918 L133.931257,20.6640531 L124.259687,20.6640531 L112.797006,28.5342293 L110.862723,26.1549366 L124.268626,17.0184887 L131.388523,17.0184887 Z M97.2565276,44.4348939 L122.113143,44.4348939 L124.564518,37.1889891 L127.304211,40.403348 L124.680269,48.2191352 L100.951469,48.2191352 L97.2565276,44.4348939 Z M103.200129,17.0184887 L104.366577,17.0184887 L106.857951,10.037317 L109.751574,13.134334 L108.376046,17.0184887 L109.17797,17.0184887 L105.383792,19.5567415 L103.200129,17.0184887 Z M94.0788298,35.5026301 L97.7354397,33.0528721 L99.5665476,35.5026301 L94.0788298,35.5026301 Z M94.2365481,37.1889891 L97.1406251,39.8949162 L94.1753394,48.2191352 L73.7974089,48.2191352 L69.4782609,44.4348939 L91.6363931,44.4348939 L94.2365481,37.1889891 Z M79.7260107,17.0184887 L85.387961,17.0184887 L88.1808323,20.6640531 L83.4548893,20.6640531 L79.7260107,17.0184887 Z" id="Fill-6" fill="#FFFFFF"></path>
                    <polygon id="Fill-7" fill="#FFFFFF" points="10.2428169 51.6282261 7.36339217 55.5232045 6.69086615 51.6282261 2.05381461 51.6282261 1.71540198 52.7515095 3.14306109 52.7515095 1.77098518 57.3167612 0.340255172 57.3167612 0 58.4464079 4.13787755 58.4464079 4.47582955 57.3167612 3.48346981 57.3167612 4.80287987 52.9149871 5.66503366 58.4464079 7.0156133 58.4464079 11.1155653 52.88514 9.80045449 57.3167612 8.83818952 57.3167612 8.50254069 58.4464079 12.9729962 58.4464079 13.3063418 57.3167612 11.8708519 57.3167612 13.2214316 52.7515095 14.6540041 52.7515095 14.9855072 51.6282261"></polygon>
                    <polygon id="Fill-8" fill="#FFFFFF" points="14.3043478 58.4464079 14.6379581 57.3168876 16.0326214 57.3168876 17.3779979 52.7515345 15.986415 52.7515345 16.318023 51.6282261 25.2028986 51.6282261 24.4384906 54.2530163 22.4454543 54.2530163 22.8841071 52.7515345 19.4754606 52.7515345 18.9325354 54.6001298 20.7746307 54.6001298 20.5188013 55.4734437 18.6760898 55.4734437 18.1345508 57.3168876 21.5504363 57.3168876 22.0120382 55.7366197 24.0064607 55.7366197 23.2174093 58.4464079"></polygon>
                    <polygon id="Fill-9" fill="#FFFFFF" points="24.5217391 58.4464079 24.8479279 57.3168876 26.1742758 57.3168876 29.3807268 55.0366352 27.4695362 52.7515345 26.1661594 52.7515345 26.4905105 51.6282261 31.2105999 51.6282261 30.8886991 52.7515345 30.1367803 52.7515345 31.2501101 54.1340795 33.1447615 52.7515345 32.4378661 52.7515345 32.7588481 51.6282261 36.7826087 51.6282261 36.4636175 52.7515345 35.2002103 52.7515345 32.0435299 55.026787 33.921489 57.3168876 35.1674383 57.3168876 34.8467625 58.4464079 30.1617422 58.4464079 30.4848682 57.3168876 31.2687932 57.3168876 30.1580668 55.9500998 28.2843956 57.3168876 28.9828684 57.3168876 28.6588236 58.4464079"></polygon>
                    <polygon id="Fill-10" fill="#FFFFFF" points="39.9030287 57.3168876 41.3256543 57.3168876 41.010276 58.4464079 36.1014493 58.4464079 36.4192618 57.3168876 37.8367148 57.3168876 39.118158 52.7515345 37.7037478 52.7515345 38.0197347 51.6282261 42.9130435 51.6282261 42.5996429 52.7515345 41.1802121 52.7515345"></polygon>
                    <g id="Group-50" transform="translate(43.594203, 50.946408)">
                        <path d="M8.77653834,4.72751267 C8.36618852,5.66600165 7.76761039,6.34711391 6.98050133,6.77039284 C6.19324097,7.19351956 5.12378944,7.40538733 3.77290331,7.40538733 C2.21305955,7.40538733 1.15737714,7.11361253 0.606007398,6.53036736 C0.0546376548,5.94757879 -0.045982784,5.02202713 0.303238228,3.75508223 C0.619927819,2.60594311 1.19792793,1.70900579 2.0376925,1.06411804 C2.87670052,0.419534711 3.87851695,0.097319146 5.04359571,0.097319146 C5.63097698,0.097319146 6.1481509,0.18270551 6.59496618,0.353326033 C7.04178145,0.523946556 7.38737105,0.766559504 7.63188628,1.08146928 L7.8390282,0.321058815 L9.71525894,0.321058815 L9.07083421,2.69391694 L7.26662652,2.69391694 C7.23273332,2.24902507 7.05736627,1.90458774 6.74067668,1.66090937 C6.42413839,1.41707879 5.99184878,1.2953157 5.44380783,1.2953157 C4.71389355,1.2953157 4.12439396,1.49759463 3.67485513,1.90230468 C3.22531629,2.30716694 2.88018062,2.94794518 2.63944811,3.8247916 C2.39584074,4.71259669 2.38751875,5.35733223 2.61493607,5.75838939 C2.8425047,6.15975096 3.32381841,6.36050785 4.05857457,6.36050785 C4.66093543,6.36050785 5.15465647,6.22550303 5.53913246,5.9557978 C5.92375976,5.68609256 6.20247081,5.27651198 6.37541692,4.72751267 L8.77653834,4.72751267 Z" id="Fill-11" fill="#FFFFFF"></path>
                        <path d="M14.5674942,3.85486708 L16.8636073,3.85486708 L16.4066543,1.1957135 L14.5674942,3.85486708 Z M9.64798699,7.17032369 L9.95529543,6.03564394 L11.1663721,6.03564394 L15.190887,0.320997934 L18.4783762,0.320997934 L19.5010732,6.03564394 L20.7123012,6.03564394 L20.4107425,7.17032369 L15.7719133,7.17032369 L16.075893,6.03564394 L17.2624576,6.03564394 L17.0091665,4.73764945 L13.9431936,4.73764945 L13.0329191,6.03564394 L14.2441471,6.03564394 L13.9392596,7.17032369 L9.64798699,7.17032369 Z" id="Fill-13" fill="#FFFFFF"></path>
                        <polygon id="Fill-15" fill="#FFFFFF" points="21.8957792 7.17035413 22.1965813 6.03567438 23.6064779 6.03567438 24.8189164 1.44946777 23.4120459 1.44946777 23.711335 0.321028375 28.1421144 0.321028375 30.0118389 5.42137961 31.0502721 1.44946777 29.6385597 1.44946777 29.93452 0.321028375 34.2761785 0.321028375 33.9827905 1.44946777 32.7443269 1.44946777 31.253026 7.17035413 28.3724066 7.17035413 26.3843586 2.03164752 25.3288275 6.03567438 26.7387241 6.03567438 26.4401916 7.17035413"></polygon>
                        <path d="M38.8516849,3.85486708 L41.1477979,3.85486708 L40.6607344,1.1957135 L38.8516849,3.85486708 Z M33.9698535,7.17032369 L34.2643007,6.03564394 L35.4755287,6.03564394 L39.4349808,0.320997934 L42.7224699,0.320997934 L43.8100785,6.03564394 L45.0211552,6.03564394 L44.7326091,7.17032369 L40.0936286,7.17032369 L40.3848983,6.03564394 L41.5713116,6.03564394 L41.3031922,4.73764945 L38.2372193,4.73764945 L37.3417731,6.03564394 L38.553001,6.03564394 L38.2611261,7.17032369 L33.9698535,7.17032369 Z" id="Fill-17" fill="#FFFFFF"></path>
                        <g id="Group-21" transform="translate(45.997915, 5.935950)">
                            <mask id="mask-2" fill="white">
                                <use xlink:href="#path-1"></use>
                            </mask>
                            <g id="Clip-20"></g>
                            <polygon id="Fill-19" fill="#FFFFFF" mask="url(#mask-2)" points="1.47055636 0.0997087466 3.59523637 0.0997087466 1.68405327 2.43527693 0.0888032113 2.43527693"></polygon>
                        </g>
                        <path d="M55.7286981,7.17035413 L56.3663139,4.61287273 L58.2663002,4.61287273 C58.3201662,5.07526804 58.5096049,5.4446668 58.8346165,5.72106901 C59.160082,5.99731901 59.5658926,6.13552011 60.0525021,6.13552011 C60.3436205,6.13552011 60.5940368,6.06992025 60.8035996,5.93826391 C61.0131625,5.80675978 61.1443474,5.63446501 61.1970029,5.42137961 C61.2502636,5.20509793 61.2098641,5.03691267 61.0758044,4.91712824 C60.9415934,4.7973438 60.6252064,4.68258209 60.1264922,4.57299532 L58.1024326,4.11394848 C57.5419843,3.98792369 57.1596267,3.77422948 56.9552083,3.47347466 C56.7507899,3.17287204 56.7117522,2.77014063 56.83749,2.26558485 C57.0037785,1.59877975 57.3965765,1.0758073 58.0161865,0.696210882 C58.6353427,0.316918871 59.4070182,0.127120661 60.3310619,0.127120661 C60.8226646,0.127120661 61.28915,0.205810055 61.7305182,0.363036639 C62.1718863,0.520719835 62.5468298,0.743394077 62.8553487,1.03182039 L63.0307158,0.321028375 L64.9812392,0.321028375 L64.4788936,2.36512617 L62.5808743,2.36512617 C62.3958235,2.04321501 62.1177177,1.78279421 61.7458004,1.58371157 C61.373883,1.38478113 60.9800259,1.28539201 60.5639263,1.28539201 C60.2304414,1.28539201 59.9561183,1.33927218 59.7412596,1.44703251 C59.5262497,1.55479284 59.39567,1.70166956 59.3496721,1.88735826 C59.3100292,2.0465635 59.3408962,2.17182727 59.4421219,2.26314959 C59.5433476,2.3543197 59.7607785,2.43985826 60.094566,2.51946088 L62.0456947,2.96770124 C62.8085943,3.1438011 63.3328797,3.40711377 63.618551,3.75748705 C63.9040709,4.10831694 63.9756401,4.57466956 63.8326531,5.15684931 C63.67045,5.81589201 63.2611593,6.35043196 62.6041759,6.76046915 C61.9470412,7.17035413 61.1597809,7.37537273 60.2423948,7.37537273 C59.7622916,7.37537273 59.3101805,7.29196501 58.8862129,7.12530179 C58.4623966,6.95863857 58.1296682,6.73535551 57.8880279,6.45545262 L57.7105425,7.17035413 L55.7286981,7.17035413 Z" id="Fill-22" fill="#FFFFFF"></path>
                        <polygon id="Fill-24" fill="#FFFFFF" points="65.5229857 7.17035413 65.8006376 6.03567438 67.8012443 6.03567438 67.5246516 7.17035413"></polygon>
                        <path d="M77.9675551,6.03565916 L79.6950492,6.03565916 C80.4329829,6.03565916 81.00024,5.85925489 81.3968207,5.50629415 C81.7932501,5.15348561 82.0887565,4.56643533 82.2836424,3.74499112 C82.4761073,2.93465778 82.4629435,2.34943395 82.2446047,1.98931963 C82.0261146,1.62950971 81.5718852,1.44945255 80.8817651,1.44945255 L79.0637883,1.44945255 L77.9675551,6.03565916 Z M74.2296193,7.17033891 L74.5027319,6.03565916 L75.9124772,6.03565916 L77.0130984,1.44945255 L75.6065306,1.44945255 L75.8779788,0.321013154 L81.1504898,0.321013154 C82.6489021,0.321013154 83.674928,0.5951323 84.2282648,1.1435228 C84.7822068,1.69252211 84.9183848,2.56267156 84.6367989,3.75518877 C84.3540025,4.9521199 83.8105008,5.82089952 83.0061425,6.36046219 C82.2013303,6.90032927 81.0389751,7.17033891 79.5190769,7.17033891 L74.2296193,7.17033891 Z" id="Fill-26" fill="#FFFFFF"></path>
                        <polygon id="Fill-28" fill="#FFFFFF" points="85.3895305 7.17035413 85.6567421 6.03567438 87.0268445 6.03567438 88.1037101 1.44946777 86.7366339 1.44946777 87.0023324 0.321028375 95.7307394 0.321028375 95.1206618 2.95780799 93.1625729 2.95780799 93.5130044 1.44946777 90.1645378 1.44946777 89.7301298 3.30650702 91.5396333 3.30650702 91.335215 4.18381006 89.5249549 4.18381006 89.0919088 6.03567438 92.4474869 6.03567438 92.8163781 4.44818815 94.7756774 4.44818815 94.1457783 7.17035413"></polygon>
                        <path d="M104.729445,3.29658333 L107.198352,3.29658333 C107.710684,3.29658333 108.079727,3.22519972 108.305177,3.08243251 C108.530628,2.93951309 108.681029,2.70055303 108.756532,2.36509573 C108.827496,2.04988154 108.77136,1.81853168 108.588428,1.67074174 C108.405192,1.5232562 108.080937,1.44943733 107.61536,1.44943733 L105.14857,1.44943733 L104.729445,3.29658333 Z M100.413811,7.17032369 L100.672852,6.03564394 L102.0829,6.03564394 L103.127688,1.44943733 L101.720667,1.44943733 L101.978497,0.320997934 L107.998777,0.320997934 C108.863507,0.320997934 109.45921,0.343371901 109.785886,0.388119835 C110.112411,0.432867769 110.367972,0.508208678 110.551964,0.614142562 C110.820083,0.773195592 111.003923,0.991151515 111.103636,1.26801033 C111.203349,1.54486915 111.212881,1.86419284 111.131779,2.2258292 C111.009068,2.77345868 110.72491,3.21271901 110.278851,3.54315358 C109.832944,3.87404477 109.291409,4.04268664 108.655155,4.0492314 L108.58752,4.32837328 L108.885144,4.32837328 C108.987581,4.32837328 109.072616,4.35500895 109.139797,4.40843251 C109.207432,4.46155165 109.248286,4.53643595 109.263265,4.63278099 L109.415936,5.67613843 C109.435455,5.79592287 109.484782,5.88587534 109.563916,5.94569146 C109.643051,6.00565978 109.752145,6.03564394 109.891197,6.03564394 L110.745034,6.03564394 L110.491137,7.17032369 L108.285961,7.17032369 C108.027828,7.17032369 107.828403,7.12116185 107.688442,7.02268595 C107.54833,6.92451446 107.454367,6.76865771 107.406251,6.55526791 L107.055819,4.96199793 C106.994085,4.69274931 106.89634,4.49564532 106.762583,4.37083815 C106.628674,4.2461832 106.446044,4.18377961 106.21439,4.18377961 L104.528204,4.18377961 L104.10817,6.03564394 L105.503087,6.03564394 L105.246316,7.17032369 L100.413811,7.17032369 Z" id="Fill-30" fill="#FFFFFF"></path>
                        <polygon id="Fill-32" fill="#FFFFFF" points="112.57224 7.17035413 112.825078 6.03567438 114.825533 6.03567438 114.573755 7.17035413"></polygon>
                        <polygon id="Fill-34" fill="#FFFFFF" points="116.629953 7.17035413 116.88052 6.03567438 118.290568 6.03567438 119.300555 1.44946777 117.893836 1.44946777 118.143042 0.321028375 122.999907 0.321028375 122.753122 1.44946777 121.351245 1.44946777 120.345646 6.03567438 123.001269 6.03567438 123.570342 3.42598705 125.518747 3.42598705 124.705764 7.17035413"></polygon>
                        <polygon id="Fill-36" fill="#FFFFFF" points="126.781829 7.17035413 127.0271 6.03567438 129.027556 6.03567438 128.783343 7.17035413"></polygon>
                        <path d="M139.194033,6.03565916 L140.921376,6.03565916 C141.659309,6.03565916 142.221725,5.85925489 142.608016,5.50629415 C142.994459,5.15348561 143.273322,4.56643533 143.444755,3.74499112 C143.613918,2.93465778 143.58411,2.34943395 143.355482,1.98931963 C143.126703,1.62950971 142.667481,1.44945255 141.977361,1.44945255 L140.159384,1.44945255 L139.194033,6.03565916 Z M135.488326,7.17033891 L135.729058,6.03565916 L137.138955,6.03565916 L138.108694,1.44945255 L136.701824,1.44945255 L136.941194,0.321013154 L142.213857,0.321013154 C143.712269,0.321013154 144.746012,0.5951323 145.315084,1.1435228 C145.884611,1.69252211 146.045604,2.56267156 145.798063,3.75518877 C145.549613,4.9521199 145.030775,5.82089952 144.241699,6.36046219 C143.452472,6.90032927 142.297682,7.17033891 140.777935,7.17033891 L135.488326,7.17033891 Z" id="Fill-38" fill="#FFFFFF"></path>
                        <polygon id="Fill-40" fill="#FFFFFF" points="146.648373 7.17035413 146.883205 6.03567438 148.253156 6.03567438 149.199291 1.44946777 147.832063 1.44946777 148.065533 0.321028375 156.794091 0.321028375 156.259214 2.95780799 154.301125 2.95780799 154.608282 1.44946777 151.259967 1.44946777 150.878668 3.30650702 152.688172 3.30650702 152.50872 4.18381006 150.698611 4.18381006 150.318371 6.03567438 153.67395 6.03567438 153.997297 4.44818815 155.956899 4.44818815 155.404621 7.17035413"></polygon>
                        <path d="M171.001425,4.72751267 C170.66219,5.66600165 170.115057,6.34711391 169.360025,6.77039284 C168.604691,7.19351956 167.551581,7.40538733 166.200544,7.40538733 C164.6407,7.40538733 163.562926,7.11361253 162.967223,6.53036736 C162.372125,5.94757879 162.201297,5.02202713 162.454437,3.75508223 C162.684124,2.60594311 163.194489,1.70900579 163.985381,1.06411804 C164.775667,0.419534711 165.752972,0.097319146 166.918202,0.097319146 C167.505583,0.097319146 168.028961,0.18270551 168.488789,0.353326033 C168.948616,0.523946556 169.312666,0.766559504 169.580785,1.08146928 L169.730581,0.321058815 L171.606812,0.321058815 L171.141991,2.69391694 L169.337783,2.69391694 C169.270148,2.24902507 169.068756,1.90458774 168.733606,1.66090937 C168.398608,1.41707879 167.957089,1.2953157 167.408897,1.2953157 C166.679134,1.2953157 166.104916,1.49759463 165.685942,1.90230468 C165.266968,2.30716694 164.970402,2.94794518 164.795943,3.8247916 C164.619517,4.71259669 164.660219,5.35733223 164.918049,5.75838939 C165.17588,6.15975096 165.672173,6.36050785 166.40708,6.36050785 C167.009441,6.36050785 167.492873,6.22550303 167.857225,5.9557978 C168.221274,5.68609256 168.469118,5.27651198 168.600455,4.72751267 L171.001425,4.72751267 Z" id="Fill-42" fill="#FFFFFF"></path>
                        <polygon id="Fill-44" fill="#FFFFFF" points="172.648831 7.17035413 172.869893 6.03567438 174.8705 6.03567438 174.650497 7.17035413"></polygon>
                        <polygon id="Fill-46" fill="#FFFFFF" points="180.347263 7.17035413 179.078386 1.44946777 177.800431 1.44946777 178.018013 0.321028375 182.558038 0.321028375 182.342725 1.44946777 181.148898 1.44946777 182.214869 6.23049532 184.982915 1.44946777 183.843407 1.44946777 184.057963 0.321028375 188.295975 0.321028375 188.083688 1.44946777 186.716612 1.44946777 183.376922 7.17035413"></polygon>
                        <polygon id="Fill-48" fill="#FFFFFF" points="189.0688 7.17035413 189.281087 6.03567438 191.281542 6.03567438 191.070315 7.17035413"></polygon>
                    </g>
                </g>
            </g>
        </g>
    </g>
</svg>