<svg xmlns="http://www.w3.org/2000/svg" width="39" height="57" viewBox="0 0 39 57">
    <g fill="none" fill-rule="evenodd">
        <path fill="#0053A0" fill-rule="nonzero" d="M19.5.085C8.748.085 0 8.817 0 19.55c0 13.49 19.52 36.535 19.52 36.535S39 32.377 39 19.55C39 8.817 30.253.085 19.5.085zm5.884 25.165c-1.623 1.619-3.753 2.429-5.884 2.429-2.13 0-4.262-.81-5.883-2.43-3.245-3.237-3.245-8.506 0-11.745 1.57-1.569 3.66-2.433 5.883-2.433s4.312.865 5.884 2.433c3.244 3.239 3.244 8.508 0 11.746z"/>
        <circle cx="19.5" cy="19.585" r="8.5" fill="#FFF"/>
    </g>
</svg>
