<svg xmlns="http://www.w3.org/2000/svg" width="17" height="17" viewBox="0 0 17 17">
    <g fill="#0053A0" stroke="#0053A0" stroke-width=".2">
        <path d="M7.5 0C3.358 0 0 3.358 0 7.5 0 11.642 3.358 15 7.5 15c4.142 0 7.5-3.358 7.5-7.5C14.995 3.36 11.64.005 7.5 0zm-.018 14.49c-3.87 0-7.008-3.138-7.008-7.008S3.612.474 7.482.474s7.007 3.138 7.007 7.008c-.004 3.868-3.14 7.003-7.007 7.007z" transform="translate(1 1)"/>
        <path d="M10.991 4.49H4.01c-.138 0-.25.111-.25.25v5.52c0 .139.112.25.25.25h6.982c.138 0 .25-.111.25-.25V4.74c0-.139-.112-.25-.25-.25zm-.699.51l-2.81 2.445L4.672 5h5.62zm-6.058 5V5.292l3.085 2.647c.094.08.231.08.325 0l3.086-2.647V10H4.234z" transform="translate(1 1)"/>
    </g>
</svg>
