<svg xmlns="http://www.w3.org/2000/svg" width="17" height="17" viewBox="0 0 17 17">
    <g fill="#ED1C25" stroke="#ED1C25" stroke-width=".25">
        <path d="M12.682 2.132c-2.943-2.843-7.608-2.843-10.55 0-2.914 3.016-2.83 7.823.186 10.736 2.943 2.843 7.608 2.843 10.55 0 2.914-3.016 2.83-7.823-.186-10.736zm-.17 10.38l-.003-.003c-2.769 2.766-7.256 2.764-10.023-.005C-.28 9.736-.278 5.248 2.491 2.482 5.26-.285 9.747-.283 12.514 2.486c1.328 1.33 2.074 3.134 2.073 5.014 0 1.88-.746 3.682-2.075 5.012z" transform="translate(1 1)"/>
        <path d="M11.725 9.652l-1.408-1.414c-.32-.323-.839-.324-1.159-.002l-.001.002-.807.813c-.061.062-.157.07-.228.02-.442-.31-.855-.66-1.235-1.046-.341-.342-.654-.711-.937-1.104-.052-.07-.044-.168.017-.23l.827-.833c.32-.323.32-.845 0-1.168L5.386 3.27c-.325-.312-.836-.312-1.16 0l-.446.45c-.674.672-.914 1.669-.622 2.577.219.665.527 1.296.917 1.875.352.53.754 1.025 1.203 1.475.488.496 1.028.935 1.611 1.312.641.421 1.345.737 2.085.935.19.047.385.07.581.07.672-.004 1.314-.276 1.787-.758l.383-.386c.32-.323.32-.845 0-1.168zm-.355.823l-.001.001.003-.007-.384.386c-.492.503-1.21.71-1.892.546-.686-.186-1.34-.48-1.934-.874-.552-.356-1.064-.772-1.526-1.24-.425-.426-.807-.894-1.14-1.396-.364-.54-.652-1.128-.857-1.748-.234-.728-.04-1.527.501-2.064l.446-.45c.124-.125.326-.126.45 0h.001l1.409 1.42c.124.125.125.328 0 .454 0 0 0 0 0 0l-.827.835c-.238.236-.267.612-.07.884.299.414.63.803.99 1.165.4.406.836.775 1.302 1.104.27.19.634.157.867-.076l.8-.819c.123-.125.325-.126.45 0 0 0 0 0 0 0l1.411 1.425c.125.125.125.329.001.454z" transform="translate(1 1)"/>
    </g>
</svg>
